<?xml version="1.0" encoding="UTF-8" standalone="no"?>
<!-- Created with Inkscape (http://www.inkscape.org/) -->

<svg
   version="1.1"
   id="svg18"
   width="459.20001"
   height="119.08"
   viewBox="0 0 459.20001 119.08"
   xmlns="http://www.w3.org/2000/svg"
   xmlns:svg="http://www.w3.org/2000/svg">
  <defs
     id="defs22" />
  <g
     id="g26"
     transform="matrix(1.3333333,0,0,-1.3333333,0,119.08)">
    <g
       id="g28"
       transform="scale(0.1)">
      <path
         d="m 972.992,134.59 h 18.977 V 2.26563 H 972.992 V 134.59"
         style="fill:#ffffff;fill-opacity:1;fill-rule:nonzero;stroke:none"
         id="path30" />
      <path
         d="m 1100.49,134.59 h 25.77 l 58.38,-106.5548 h 0.38 V 134.59 h 18.95 V 2.26563 h -24.26 l -59.9,108.82037 h -0.37 V 2.26563 h -18.95 V 134.59"
         style="fill:#ffffff;fill-opacity:1;fill-rule:nonzero;stroke:none"
         id="path32" />
      <path
         d="m 1339.72,117.93 h -41.15 v 16.66 h 101.25 v -16.66 h -41.15 V 2.26563 h -18.95 V 117.93"
         style="fill:#ffffff;fill-opacity:1;fill-rule:nonzero;stroke:none"
         id="path34" />
      <path
         d="m 1494.85,134.59 h 74.14 v -16.66 h -55.17 V 79.2266 h 50.24 V 62.5664 h -50.24 V 18.9453 h 55.17 V 2.26563 h -74.14 V 134.59"
         style="fill:#ffffff;fill-opacity:1;fill-rule:nonzero;stroke:none"
         id="path36" />
      <path
         d="m 1690.32,77.7148 h 16.11 c 18.01,0 28.61,7.9493 28.61,20.6641 0,11.9531 -9.09,19.5511 -26.53,19.5511 h -18.19 z m -18.95,56.8752 h 32.41 c 26.15,0 51.37,-4.18 51.37,-35.84 0,-16.1055 -11.96,-27.4805 -27.31,-30.1484 v -0.3477 c 5.89,-2.2695 8.73,-5.1406 12.91,-13.293 l 25.02,-52.69527 h -21.62 l -20.29,45.84767 c -5.86,12.8945 -12.13,12.8945 -22.17,12.8945 h -11.37 V 2.26563 h -18.95 V 134.59"
         style="fill:#ffffff;fill-opacity:1;fill-rule:nonzero;stroke:none"
         id="path38" />
      <path
         d="m 1862.21,134.59 h 18.94 V 2.26563 h -18.94 V 134.59"
         style="fill:#ffffff;fill-opacity:1;fill-rule:nonzero;stroke:none"
         id="path40" />
      <path
         d="m 2046.98,16.7109 c 30.5,0 43.59,25.3672 43.59,51.7461 0,26.9258 -14.43,51.941 -43.59,51.738 -29.2,0.203 -43.61,-24.8122 -43.61,-51.738 0,-26.3789 13.09,-51.7461 43.61,-51.7461 z m 0,120.1441 c 40.19,0 63.67,-29.191 63.67,-68.398 C 2110.65,28.2305 2087.34,0 2046.98,0 c -40.4,0 -63.75,28.2305 -63.75,68.457 0,39.207 23.56,68.398 63.75,68.398"
         style="fill:#ffffff;fill-opacity:1;fill-rule:nonzero;stroke:none"
         id="path42" />
      <path
         d="m 2231.3,77.7148 h 16.08 c 18.05,0 28.64,7.9493 28.64,20.6641 0,11.9531 -9.09,19.5511 -26.53,19.5511 h -18.19 z m -18.96,56.8752 h 32.43 c 26.14,0 51.36,-4.18 51.36,-35.84 0,-16.1055 -11.96,-27.4805 -27.31,-30.1484 v -0.3477 c 5.89,-2.2695 8.74,-5.1406 12.91,-13.293 l 25.02,-52.69527 h -21.62 l -20.29,45.84767 c -5.86,12.8945 -12.13,12.8945 -22.16,12.8945 H 2231.3 V 2.26563 h -18.96 V 134.59"
         style="fill:#ffffff;fill-opacity:1;fill-rule:nonzero;stroke:none"
         id="path44" />
      <path
         d="m 2466.55,114.707 c -9.66,3.777 -14.97,5.488 -24.83,5.488 -10.63,0 -23.14,-3.8 -23.14,-17.617 0,-25.4217 56.89,-19.5311 56.89,-63.1639 C 2475.47,11.1719 2453.67,0 2427.12,0 c -9.29,0 -18.4,2.66406 -27.1,5.48828 l 1.88,17.66402 c 6.45,-2.664 17.82,-6.4414 27.48,-6.4414 10.83,0 25.98,6.043 25.98,21.5704 0,29.5703 -56.85,21.4335 -56.85,62.5857 0,23.508 18.54,35.988 42.46,35.988 8.73,0 19.15,-1.515 28.23,-4.726 l -2.65,-17.422"
         style="fill:#ffffff;fill-opacity:1;fill-rule:nonzero;stroke:none"
         id="path46" />
      <path
         d="M 2363.91,763.051 2426.39,614.09 H 2300.33 Z M 2168.86,445.945 h 60.4 l 49.37,116.024 h 169.41 l 48.14,-116.024 h 60.34 L 2365.23,893.109 Z M 683.023,763.051 745.488,614.09 H 619.43 Z M 487.961,445.945 h 60.394 l 49.379,116.024 h 169.395 l 48.168,-116.024 h 60.328 L 684.355,893.109 Z M 256.777,866.586 h 54.61 V 445.945 h -54.61 V 647.156 H 54.5898 V 445.945 H 0 V 866.586 H 54.5898 V 699.332 H 256.777 Z M 2957.81,747.297 c 0,-41.852 -26.8,-66.692 -73.42,-69.613 l -58.53,136.808 h 45.67 c 39.34,0 86.28,-11.679 86.28,-67.195 z m 54.58,-2.469 c 0,21.695 -5.08,62.418 -39.21,91.66 -30.47,26.477 -69.22,30.098 -106.6,30.098 h -63 -19.87 -36.12 l 79.1,-189.508 H 2712.21 V 445.945 h 54.61 v 178.993 h 81.64 l 74.72,-178.993 h 60.35 l -77.44,181.032 c 77.61,10.773 106.3,65.859 106.3,117.851 z m 263.7,69.664 V 701.141 h 162.93 V 649.047 H 3276.09 V 498.094 h 167.88 V 445.945 H 3221.48 V 866.586 H 3444 v -52.094 z m -1475.54,52.094 h 254.61 v -52.094 h -99.99 V 445.945 h -54.61 v 368.547 h -100.01 z m -261.66,0 h 54.59 V 445.945 h -54.59 z m -423.38,-230.5 h 42.46 c 32.19,0 53.03,-3.648 67.65,-11.805 9.86,-5.336 32.84,-21.492 32.84,-56.601 0,-21.766 -9.47,-41.649 -25.42,-53.223 -19.23,-15.102 -44.87,-16.363 -69.51,-16.363 h -48.02 z m 30.12,49.652 h -30.12 v 128.754 h 31.36 c 22.6,0 75.17,-6.344 75.17,-64.703 0,-52.976 -41.55,-64.051 -76.41,-64.051 z m 94.43,-13.789 c 23.48,18.996 35.34,45.551 35.34,79.071 0,53.402 -27.13,79.878 -38.71,88.687 -33.8,26.879 -81.54,26.879 -97.22,26.879 H 1060.9 V 445.945 h 106.93 c 31.96,0 68.81,2.168 101.53,28.094 21.11,16.406 43.68,49.324 43.68,92.387 0,38.476 -19.3,87.855 -72.98,105.523"
         style="fill:#ffffff;fill-opacity:1;fill-rule:nonzero;stroke:none"
         id="path48" />
    </g>
  </g>
</svg>
